<?xml version="1.0" standalone="no"?>
<!DOCTYPE svg PUBLIC "-//W3C//DTD SVG 20010904//EN"
 "http://www.w3.org/TR/2001/REC-SVG-20010904/DTD/svg10.dtd">
<svg version="1.0" xmlns="http://www.w3.org/2000/svg"
 width="1001.000000pt" height="1001.000000pt" viewBox="0 0 1001.000000 1001.000000"
 preserveAspectRatio="xMidYMid meet">
<metadata>
Created by potrace 1.14, written by Peter Selinger 2001-2017
</metadata>
<g transform="translate(0.000000,1001.000000) scale(0.100000,-0.100000)"
fill="#000000" stroke="none">
<path d="M2960 7752 l0 -817 566 -565 566 -565 -6 874 c-3 481 -6 1103 -6
1383 l0 508 -560 0 -560 0 0 -818z"/>
<path d="M4580 7996 l0 -576 484 0 484 0 88 -26 c121 -34 291 -120 395 -198
256 -193 416 -467 464 -796 17 -116 13 -349 -9 -470 -77 -432 -374 -757 -819
-899 l-97 -31 -1310 0 -1310 0 1 -1382 0 -1383 560 -540 c308 -297 574 -551
590 -564 l30 -24 -5 74 c-3 41 -8 643 -12 1339 -3 696 -8 1273 -10 1283 -1 9
0 17 4 18 4 0 21 2 39 3 18 2 310 7 650 10 340 4 650 9 688 12 461 36 947 224
1299 502 99 78 255 230 344 337 291 347 479 814 520 1293 11 130 7 445 -7 547
-58 430 -206 806 -443 1123 -87 116 -272 309 -383 399 -251 203 -589 372 -909
454 -235 60 -252 62 -808 66 l-518 4 0 -575z"/>
</g>
</svg>
